<svg xmlns="http://www.w3.org/2000/svg" xmlns:xlink="http://www.w3.org/1999/xlink" baseProfile="tiny" id="Calque_1" x="0px" y="0px" viewBox="0 0 212 140" xml:space="preserve"> <g> <g> <path fill="#9FBE37" d="M124,121.5c-0.8,0-1.4-0.6-1.4-1.4v-11.3c0-10-8.2-18.1-18.3-18.1c-10.1,0-18.3,8.1-18.3,18.1v11.3 c0,0.8-0.6,1.4-1.4,1.4c-0.8,0-1.4-0.6-1.4-1.4v-11.3c0-11.5,9.5-20.9,21.1-20.9c11.6,0,21.1,9.4,21.1,20.9v11.3 C125.4,120.8,124.8,121.5,124,121.5"></path> <path fill="#9FBE37" d="M104.3,51.4c-6.8,0-12.4,5.5-12.4,12.2c0,6.8,5.5,12.2,12.4,12.2c6.8,0,12.4-5.5,12.4-12.2 C116.7,56.9,111.1,51.4,104.3,51.4 M104.3,78.7c-8.4,0-15.2-6.8-15.2-15c0-8.3,6.8-15,15.2-15c8.4,0,15.2,6.8,15.2,15 C119.5,72,112.7,78.7,104.3,78.7"></path> <path fill="#C2241A" d="M66.9,81c-0.8,0-1.5,0.3-2.1,0.8c-1.2,1.1-1.3,3.1-0.1,4.3l6.4,6.3l6.4-6.4c1.1-1.2,1.1-3.1-0.2-4.3 c-1.2-1.1-3.2-1-4.3,0.1l-0.9,1c-0.3,0.3-0.6,0.4-1,0.4c-0.4,0-0.8-0.2-1-0.4l-0.9-1C68.6,81.4,67.8,81,66.9,81 M71.1,95.9 c-0.4,0-0.7-0.1-1-0.4l-7.4-7.3c-2.3-2.4-2.1-6.1,0.2-8.3c2.2-2.1,6-2,8.2,0.1c2.2-2.1,6-2.2,8.2-0.1c2.4,2.2,2.5,5.9,0.3,8.3 l-7.5,7.4C71.8,95.7,71.5,95.9,71.1,95.9"></path> <path fill="#C2241A" d="M124.8,26.5c-1.1,0-2.2,0.4-3.1,1.2c-1.8,1.7-1.9,4.5-0.2,6.3l8.7,8.6l8.8-8.7c1.7-1.7,1.6-4.6-0.2-6.2 c-1.7-1.6-4.7-1.5-6.3,0.2l-1.2,1.3c-0.3,0.3-0.6,0.4-1,0.4h0c-0.4,0-0.8-0.2-1-0.4l-1.2-1.3C127.2,27,126,26.5,124.8,26.5 M130.3,46c-0.4,0-0.7-0.1-1-0.4l-9.7-9.6c-2.8-2.9-2.7-7.5,0.3-10.3c2.8-2.6,7.7-2.5,10.3,0.3l0.2,0.2l0.2-0.2 c2.6-2.8,7.5-2.9,10.3-0.3c2.9,2.7,3.1,7.3,0.3,10.2l-9.8,9.7C131,45.8,130.6,46,130.3,46"></path> <path fill="none" stroke="#9FBE37" stroke-width="2.6969" stroke-linecap="round" stroke-miterlimit="10" d="M69.9,29.2 c3.3,4.4,4.1,10.2,2.5,14.9"></path> <path fill="#FFFFFF" d="M65,58c-7.3,0.7-14.3-4-17-10.7l30.3-2.7C77.7,51.7,72.3,57.4,65,58 M70.1,27.4L48,47.3 c-1-0.7-2-1.6-2.9-2.6c-6-6.7-5.8-16.8,0.4-22.4c6.3-5.7,16.3-4.8,22.3,1.9C68.7,25.2,69.4,26.2,70.1,27.4"></path> <path fill="none" stroke="#C2241A" stroke-width="2.6969" stroke-linecap="round" stroke-miterlimit="10" d="M65,58 c-7.3,0.7-14.3-4-17-10.7l30.3-2.7C77.7,51.7,72.3,57.4,65,58z M70.1,27.4L48,47.3c-1-0.7-2-1.6-2.9-2.6c-6-6.7-5.8-16.8,0.4-22.4 c6.3-5.7,16.3-4.8,22.3,1.9C68.7,25.2,69.4,26.2,70.1,27.4z"></path> </g> <path fill="none" stroke="#C2241A" stroke-width="2.6969" stroke-linecap="round" stroke-linejoin="round" stroke-miterlimit="10" d=" M156.8,98.2l14.6-20.4h-8.1l-13.7,20.4H156.8z M156.8,57.5l14.6,20.4h-8.1l-13.7-20.4H156.8z M163.2,77.8l-13.7,20.4l-13.1-20.4 l13.1-20.4L163.2,77.8z"></path> </g> </svg>