<?xml version="1.0" encoding="UTF-8"?> <!-- Generator: Adobe Illustrator 21.1.0, SVG Export Plug-In . SVG Version: 6.00 Build 0) --> <svg xmlns="http://www.w3.org/2000/svg" xmlns:xlink="http://www.w3.org/1999/xlink" id="Calque_1" x="0px" y="0px" viewBox="0 0 212 140" style="enable-background:new 0 0 212 140;" xml:space="preserve"> <style type="text/css"> .st0{fill:#FFFFFF;} .st1{fill:none;stroke:#9FBE37;stroke-width:1.8715;stroke-linejoin:round;stroke-miterlimit:10;} .st2{fill:none;stroke:#C2241A;stroke-width:1.8715;stroke-linejoin:round;stroke-miterlimit:10;} .st3{fill:none;stroke:#9FBE37;stroke-width:1.8715;stroke-linecap:round;stroke-miterlimit:10;} .st4{fill:none;stroke:#C2241A;stroke-width:1.8715;stroke-linecap:round;stroke-miterlimit:10;} .st5{fill:none;stroke:#C2241A;stroke-width:1.8715;stroke-linecap:round;stroke-linejoin:round;stroke-miterlimit:10;} </style> <g> <path class="st0" d="M123.5,65l14.1-53c9,8.4,15.9,19,19.9,30.9L123.5,65z M111.5,65l12.8-53h13.3l-14.1,53H111.5z"></path> <path class="st1" d="M123.5,65l14.1-53c9,8.4,15.9,19,19.9,30.9L123.5,65z M111.5,65l12.8-53h13.3l-14.1,53H111.5z"></path> <path class="st0" d="M130.9,49.1c0.6-2.3,6-22.8,6.4-24.9c0.6-2.1,2.1-6.3,4.9-3.2c4,4.6,7.3,9.9,9.3,16c0.9,2.9,1.2,5.3-1.5,7.2 c-2.6,2-12.2,8.6-14.5,10.1C131.9,57.1,129.5,53.9,130.9,49.1"></path> <path class="st2" d="M130.9,49.1c0.6-2.3,6-22.8,6.4-24.9c0.6-2.1,2.1-6.3,4.9-3.2c4,4.6,7.3,9.9,9.3,16c0.9,2.9,1.2,5.3-1.5,7.2 c-2.6,2-12.2,8.6-14.5,10.1C131.9,57.1,129.5,53.9,130.9,49.1z"></path> <g> <path class="st0" d="M146.3,91.5c4.3,5,5.3,12.1,3.2,17.4"></path> <path class="st3" d="M146.3,91.5c4.3,5,5.3,12.1,3.2,17.4"></path> <path class="st0" d="M141,125c-8.4,0.8-16.5-4.6-19.7-12.4l35-3.1C155.6,117.6,149.5,124.2,141,125 M146.9,89.5l-25.5,23.1 c-1.2-0.9-2.3-1.8-3.4-3.1c-7-7.8-6.7-19.4,0.5-25.8c7.2-6.6,18.8-5.5,25.8,2.3C145.2,86.9,146.2,88.1,146.9,89.5"></path> <path class="st4" d="M141,125c-8.4,0.8-16.5-4.6-19.7-12.4l35-3.1C155.6,117.6,149.5,124.2,141,125z M146.9,89.5l-25.5,23.1 c-1.2-0.9-2.3-1.8-3.4-3.1c-7-7.8-6.7-19.4,0.5-25.8c7.2-6.6,18.8-5.5,25.8,2.3C145.2,86.9,146.2,88.1,146.9,89.5z"></path> </g> <path class="st5" d="M80,61.7l16.8-23.5h-9.3L71.7,61.7H80z M80,14.6l16.8,23.5h-9.3L71.7,14.6H80z M87.5,38.1L71.7,61.7L56.4,38.1 l15.1-23.5L87.5,38.1z"></path> <g> <path class="st1" d="M90.2,123.9c0,0.9-0.8,1.7-1.5,1.8c-3.1,0.8-7,1.4-11.6,1.4c-3.1,0-7-0.3-11.6-1.4c-0.9-0.2-1.5-0.9-1.5-1.8 L61.3,88c-0.2-2,1.4-3.7,3.4-3.7h24.5c2,0,3.5,1.7,3.4,3.7L90.2,123.9z"></path> <path class="st5" d="M91,78.5c0,1.5-2,2.8-4.4,2.8c-2.1,0-4.3-1.7-5.3-1.7c-0.8,0-1.2,0.6-1.2,1.2c0,0.6,0.9,0.9,0.9,1.2v2.1h-7.8 V82c0-0.3,0.9-0.6,0.9-1.2c0-0.6-0.6-1.2-1.2-1.2c-1.1,0-3.4,1.7-5.3,1.7C65,81.2,63,80,63,78.5c0-1.7,4.4-3.2,11.6-3.2 c0.8,0,2.3,0,2.3,0s1.7,0,2.3,0C86.5,75.4,91,77,91,78.5z"></path> </g> </g> </svg> 